# xmcd CD database file
#
# Track frame offsets:
#	150
#	36125
#	87970
#	97675
#	145925
#	173585
#
# Disc length: 2759 seconds
#
# Revision: 1
# Processed by: cddbd v1.4PL0 Copyright (c) Steve Scherf et al.
# Submitted via: CDex 1.51
#
DISCID=3d0ac506
DTITLE=The David Bond Group - L'Essence
DYEAR=1990
DGENRE=Jazz
TTITLE0=Bond's Blues
TTITLE1=Sunflowers
TTITLE2=Amen
TTITLE3=Goose Abuse Blues
TTITLE4=Hey Mahn!
TTITLE5=Show
EXTD=YEAR: 1990
EXTT0=
EXTT1=
EXTT2=
EXTT3=
EXTT4=
EXTT5=
PLAYORDER=
